<?xml version="1.0" standalone="no"?>
<!DOCTYPE svg PUBLIC "-//W3C//DTD SVG 20010904//EN"
 "http://www.w3.org/TR/2001/REC-SVG-20010904/DTD/svg10.dtd">
<svg version="1.0" xmlns="http://www.w3.org/2000/svg"
 width="690.000000pt" height="650.000000pt" viewBox="0 0 690.000000 650.000000"
 preserveAspectRatio="xMidYMid meet">

<g transform="translate(0.000000,650.000000) scale(0.100000,-0.100000)"
fill="#000000" stroke="none">
<path d="M0 3414 l0 -3086 28 7 c15 4 37 9 48 10 12 2 42 12 67 23 37 16 50
30 69 69 22 46 28 53 46 53 4 0 0 5 -8 10 -13 8 -12 10 3 10 10 0 17 8 17 19
0 10 6 24 13 30 8 6 19 30 26 53 7 24 26 62 41 85 19 28 25 43 17 47 -8 3 -7
9 4 18 9 7 19 23 23 36 4 12 11 22 15 22 4 0 15 25 24 55 10 30 24 80 34 110
9 30 20 55 25 55 4 0 8 9 8 21 0 11 9 32 20 46 11 14 17 29 14 34 -3 5 0 18 7
30 9 17 13 19 20 8 7 -11 9 -10 9 5 0 23 -47 76 -67 76 -7 0 -13 7 -13 15 0
17 -16 20 -25 5 -3 -5 -14 -10 -25 -10 -10 0 -20 -7 -24 -15 -4 -10 -20 -15
-53 -15 -81 0 -77 -10 -73 247 4 300 4 290 0 348 -1 28 0 95 4 150 10 140 10
190 2 204 -5 7 -1 20 8 30 9 10 13 21 9 25 -4 4 -8 53 -9 109 -4 233 -4 344
-1 377 2 19 5 71 7 115 3 78 3 79 11 30 5 -37 6 -27 4 40 -2 50 -7 104 -10
120 -5 24 -4 27 5 15 9 -13 10 -12 6 5 -5 20 -6 32 -5 210 0 55 -3 122 -7 148
-3 26 -2 47 2 46 20 -3 21 3 12 39 -14 57 -14 85 -1 107 16 25 17 60 1 88 -14
24 -18 193 -5 174 4 -7 7 85 5 204 -1 118 1 220 5 226 8 13 11 128 8 316 -1
82 2 127 9 127 7 0 8 6 1 19 -7 12 -7 44 -2 87 4 38 4 82 0 98 -5 17 -5 32 0
35 4 4 5 65 1 136 -4 72 -3 135 2 142 5 6 4 30 -3 56 -6 25 -8 72 -5 104 14
146 9 851 -7 871 -6 8 -5 17 3 27 8 10 10 31 5 64 -4 32 -3 51 5 56 8 5 8 10
-1 21 -6 7 -9 21 -5 29 5 13 -17 15 -169 15 l-175 0 0 -3086z m317 2344 c-3
-8 -6 -5 -6 6 -1 11 2 17 5 13 3 -3 4 -12 1 -19z"/>
<path d="M2650 5654 c0 -8 -4 -12 -10 -9 -6 3 -7 -1 -4 -9 3 -9 2 -16 -4 -16
-6 0 -12 4 -14 10 -7 22 -168 4 -184 -21 -3 -5 -16 -9 -29 -9 -15 0 -32 -11
-46 -32 -38 -55 -89 -98 -115 -98 -16 0 -24 -6 -25 -17 0 -10 -2 -32 -5 -50
-2 -18 0 -34 5 -37 5 -3 5 -22 1 -41 -4 -20 -4 -35 1 -35 5 0 9 -4 9 -10 0 -5
-7 -10 -15 -10 -8 0 -15 -7 -15 -15 0 -8 7 -15 15 -15 11 0 15 -11 15 -35 0
-24 8 -45 25 -63 14 -15 25 -33 25 -40 0 -26 -30 -70 -52 -77 -35 -12 -68 -13
-68 -2 0 5 -6 5 -13 -2 -11 -8 -18 -6 -31 8 -11 12 -25 16 -43 13 -16 -3 -30
1 -37 9 -18 24 -104 56 -136 51 -29 -4 -30 -7 -30 -52 0 -50 18 -77 44 -67 10
4 13 1 10 -7 -3 -8 4 -16 15 -19 29 -7 38 -37 17 -52 -23 -17 1 -26 27 -11 15
9 22 6 41 -16 22 -29 56 -38 56 -15 0 9 3 8 9 -2 7 -11 9 -11 14 0 10 25 36
-20 35 -62 0 -35 -3 -40 -32 -47 -27 -7 -31 -13 -34 -45 -3 -34 -1 -37 22 -37
22 0 26 4 26 30 0 18 5 30 13 30 22 0 37 -23 37 -56 0 -28 -3 -31 -24 -27 -29
6 -43 -25 -26 -57 9 -18 8 -24 -5 -34 -14 -10 -15 -17 -6 -34 8 -15 8 -23 0
-27 -6 -4 -8 -17 -5 -29 3 -11 2 -27 -3 -34 -4 -7 -1 -36 7 -65 8 -29 14 -60
14 -69 -1 -11 7 -18 19 -18 10 0 19 5 19 11 0 6 6 9 14 6 7 -3 18 -1 24 5 6 6
25 13 42 15 24 2 32 -2 39 -20 5 -13 7 -35 4 -50 -8 -43 34 -36 84 14 44 43
47 43 57 -13 7 -40 22 -47 55 -26 28 17 81 -7 81 -38 0 -18 4 -22 17 -17 10 4
12 8 6 10 -8 3 -5 15 8 37 11 18 17 41 13 50 -9 23 14 46 46 46 26 0 56 21 45
32 -3 3 9 20 27 39 17 19 31 42 29 52 -1 10 4 17 13 17 23 0 68 52 53 62 -12
7 -9 8 36 12 6 1 17 7 23 15 7 8 18 11 29 8 15 -6 16 -15 10 -68 l-7 -60 28 3
c16 2 38 14 49 28 10 14 25 29 33 33 7 5 26 23 40 39 36 41 45 50 78 73 38 28
64 57 59 66 -3 4 3 5 12 3 10 -2 29 4 42 15 21 16 24 28 26 82 2 85 12 116 38
123 12 3 28 19 35 36 8 16 19 30 26 30 26 0 47 -37 44 -76 -1 -23 2 -39 10
-42 7 -2 12 -10 12 -17 0 -8 12 -13 35 -12 25 1 34 5 32 15 -1 8 4 17 12 20 9
3 11 -1 6 -17 -5 -16 -2 -21 10 -21 13 0 16 -6 11 -25 -4 -14 -2 -25 4 -25 15
0 12 -42 -5 -64 -8 -11 -12 -29 -9 -40 3 -12 1 -33 -4 -46 -15 -39 29 -150 59
-150 24 0 31 14 34 69 4 69 13 94 35 88 12 -3 20 2 23 13 4 15 15 18 61 18 59
-1 70 -10 35 -28 -12 -7 -18 -18 -15 -26 3 -8 1 -14 -4 -14 -6 0 -10 9 -10 20
0 14 -7 20 -23 20 -24 0 -30 -21 -14 -47 4 -6 1 -13 -7 -16 -9 -4 -12 -14 -9
-26 6 -23 14 -26 29 -11 11 11 44 3 44 -10 0 -4 -9 -10 -20 -13 -11 -3 -20
-11 -20 -17 0 -7 8 -10 20 -7 11 3 20 1 20 -4 0 -5 -9 -9 -20 -9 -11 0 -20 -5
-20 -11 0 -6 7 -9 15 -5 12 4 14 -3 9 -42 -3 -26 -15 -69 -25 -95 -27 -65 -22
-111 11 -115 33 -5 50 -20 50 -43 0 -11 6 -19 13 -19 17 1 47 25 47 39 0 7 7
19 15 27 8 9 15 26 15 38 0 21 53 86 71 86 4 0 14 12 21 28 16 33 40 35 48 4
8 -36 25 -26 25 16 1 83 5 102 20 102 8 0 16 -6 16 -12 1 -7 4 0 8 16 9 45 34
47 26 3 -4 -21 -3 -37 4 -41 16 -10 13 -46 -4 -52 -18 -7 -20 -34 -3 -34 6 0
9 -2 6 -5 -9 -10 -37 6 -41 23 -2 10 -7 0 -12 -21 -4 -24 -3 -61 5 -97 l13
-59 18 23 c11 14 19 40 19 60 0 42 17 49 22 9 3 -24 9 -29 48 -37 68 -13 118
-11 148 7 14 10 16 47 2 47 -5 0 -10 -7 -10 -15 0 -8 -5 -15 -11 -15 -7 0 -9
9 -3 28 4 15 7 37 7 48 -1 27 40 49 55 31 5 -7 9 -31 7 -54 -2 -41 16 -75 32
-59 3 3 1 6 -5 6 -7 0 -12 4 -12 9 0 4 20 11 45 14 44 7 121 48 109 60 -3 3
10 2 30 -3 20 -4 34 -4 31 0 -3 5 2 15 10 24 10 10 14 27 11 50 -3 23 0 36 7
36 6 0 2 6 -8 14 -18 13 -18 14 3 20 12 4 20 11 17 16 -3 5 3 13 12 19 16 9
16 12 3 21 -10 7 -11 13 -4 18 5 4 16 23 24 42 7 19 41 63 75 96 33 34 69 79
80 100 11 21 28 46 37 56 10 10 18 21 19 26 6 67 6 160 -2 173 -6 12 -5 20 2
24 6 4 8 13 5 21 -8 20 15 54 35 54 8 0 39 18 68 39 29 22 66 43 81 46 16 3
34 13 41 21 6 8 20 14 31 14 10 0 21 6 24 14 3 8 15 12 27 10 12 -2 16 -2 10
2 -20 9 -15 22 9 26 24 3 32 17 19 36 -10 17 -36 17 -128 2 -42 -7 -84 -9
-100 -4 -45 13 -96 5 -116 -19 -16 -18 -20 -19 -29 -6 -8 11 -9 11 -4 -3 3
-11 0 -18 -7 -18 -8 0 -6 -4 3 -10 9 -6 10 -10 3 -10 -7 0 -15 -16 -19 -35 -3
-19 -10 -38 -15 -41 -5 -3 -9 -16 -9 -30 0 -14 -6 -27 -14 -30 -8 -3 -11 -14
-9 -28 3 -13 0 -27 -6 -30 -11 -7 -35 30 -27 43 3 5 0 24 -8 42 -13 30 -13 36
1 51 8 9 16 28 17 43 0 14 6 23 13 21 18 -7 23 5 8 20 -7 8 -23 14 -34 14 -11
0 -23 5 -26 10 -4 6 -16 8 -28 4 -12 -4 -83 -9 -157 -11 -191 -5 -206 -6 -226
-24 -17 -15 -134 -36 -175 -31 -9 1 -25 -8 -34 -18 -27 -30 -45 -25 -45 11 0
16 -4 28 -9 25 -5 -4 -4 7 2 24 13 35 10 39 -35 46 -29 5 -36 2 -47 -20 -8
-14 -23 -26 -34 -26 -11 0 -21 -9 -25 -22 -6 -23 -6 -23 -12 2 -4 18 -13 25
-28 24 -20 -1 -21 1 -7 16 21 24 19 30 -12 31 -19 0 -23 3 -13 7 9 4 15 14 14
22 -4 58 -4 57 -15 36 -9 -15 -13 -16 -20 -5 -4 8 -16 14 -26 14 -10 0 -19 6
-19 13 -1 6 -2 17 -3 23 -1 8 -6 8 -16 -1 -12 -10 -15 -10 -15 4 0 15 -15 20
-52 17 -10 -1 -27 3 -39 10 -22 11 -22 12 -4 25 17 13 14 14 -26 14 -32 0 -40
-3 -29 -10 11 -7 3 -9 -27 -6 -24 2 -41 0 -38 -4 3 -5 -1 -11 -7 -13 -7 -3 8
-6 34 -6 26 -1 50 -5 53 -11 3 -6 -4 -10 -18 -10 -36 0 -41 -12 -10 -26 l28
-13 -32 6 c-21 3 -33 1 -33 -6 0 -6 -9 -11 -19 -11 -11 0 -21 -5 -23 -11 -2
-5 -11 -7 -21 -3 -10 3 -16 12 -14 18 3 6 -2 19 -10 28 -17 20 -9 38 16 38 10
0 24 7 31 15 9 10 9 15 1 15 -6 0 -11 -4 -11 -10 0 -23 -29 -8 -41 21 -11 28
-10 33 6 45 11 9 32 12 54 8 20 -3 64 -1 98 4 60 8 62 8 59 -12 -2 -12 -1 -16
1 -10 2 6 15 16 28 22 44 20 30 39 -33 47 -62 7 -141 -8 -154 -29 -5 -7 -8 -5
-8 7 0 15 -11 17 -84 17 -48 0 -88 -5 -91 -10 -4 -6 -15 -8 -26 -5 -13 4 -19
2 -19 -9 0 -18 -15 -21 -25 -6 -3 6 -12 10 -18 9 -9 0 -9 -2 0 -6 18 -7 -3
-44 -21 -37 -7 3 -20 -2 -29 -10 -9 -9 -20 -16 -25 -16 -5 0 -15 -6 -21 -14
-7 -8 -24 -17 -39 -21 -15 -3 -38 -14 -52 -23 -58 -38 -92 -20 -94 48 -1 35
-4 42 -26 48 -51 13 -107 8 -130 -13 -12 -11 -24 -19 -26 -17 -8 7 -64 -10
-64 -19 0 -5 12 -9 28 -9 23 -1 24 -2 10 -11 -31 -18 -58 6 -58 50 0 30 -4 40
-20 44 -12 3 -20 14 -20 26 0 12 -4 21 -10 21 -5 0 -10 -7 -10 -16z m-93 -40
c-3 -3 -12 -4 -19 -1 -8 3 -5 6 6 6 11 1 17 -2 13 -5z m720 -70 c-3 -3 -12 -4
-19 -1 -8 3 -5 6 6 6 11 1 17 -2 13 -5z m-244 -91 c-7 -2 -19 -2 -25 0 -7 3
-2 5 12 5 14 0 19 -2 13 -5z m164 -408 c-20 -23 -25 -24 -36 -11 -10 12 -10
20 0 38 18 34 31 39 47 17 11 -16 10 -22 -11 -44z m482 -37 c-1 -31 -1 -31 -8
-8 -5 14 -6 28 -4 33 9 15 13 6 12 -25z m-589 -13 c0 -8 -7 -15 -15 -15 -26 0
-18 20 13 29 1 1 2 -6 2 -14z m655 -45 c10 17 54 11 64 -9 6 -10 8 -21 5 -23
-3 -3 5 -25 18 -49 12 -24 21 -54 20 -65 -2 -12 2 -25 7 -29 6 -3 11 -14 11
-23 0 -13 -2 -13 -15 4 -8 10 -15 32 -15 47 0 22 -4 28 -17 25 -15 -3 -18 -16
-21 -73 -2 -72 -16 -104 -29 -69 -6 17 -8 17 -14 -6 -6 -20 -7 -17 -8 16 -1
32 -10 52 -41 92 -22 28 -40 54 -39 59 4 24 -3 43 -16 43 -8 0 -15 4 -15 9 0
16 21 24 33 12 17 -17 27 -13 27 12 0 30 10 40 26 26 8 -7 14 -7 19 1z m-802
-32 c16 -12 14 -16 -19 -41 -39 -32 -39 -32 -48 1 -6 16 -3 22 9 22 8 0 18 7
21 15 7 18 15 19 37 3z m637 -3 c0 -8 -4 -15 -10 -15 -5 0 -7 7 -4 15 4 8 8
15 10 15 2 0 4 -7 4 -15z m46 -22 c-6 -6 -36 9 -36 18 0 5 9 4 20 -3 10 -7 18
-14 16 -15z m-777 -110 c-1 -36 -13 -51 -34 -42 -18 7 -18 8 -1 8 12 1 16 6
12 17 -7 18 0 34 15 34 5 0 9 -8 8 -17z m-755 -58 c3 -8 1 -15 -4 -15 -6 0
-10 7 -10 15 0 8 2 15 4 15 2 0 6 -7 10 -15z m2079 -152 c-7 -2 -13 -15 -13
-28 0 -13 -5 -27 -11 -31 -8 -4 -7 -9 2 -15 11 -6 11 -11 2 -20 -8 -8 -14 -6
-22 8 -13 25 16 93 39 92 10 0 11 -2 3 -6z m-405 -31 c2 -7 -6 -12 -17 -12
-21 0 -27 11 -14 24 9 9 26 2 31 -12z"/>
<path d="M3761 5644 c0 -11 3 -14 6 -6 3 7 2 16 -1 19 -3 4 -6 -2 -5 -13z"/>
<path d="M4015 5390 c-3 -5 3 -10 15 -10 12 0 18 5 15 10 -3 6 -10 10 -15 10
-5 0 -12 -4 -15 -10z"/>
<path d="M5268 5393 c7 -3 16 -2 19 1 4 3 -2 6 -13 5 -11 0 -14 -3 -6 -6z"/>
<path d="M5260 5376 c0 -9 30 -14 35 -6 4 6 -3 10 -14 10 -12 0 -21 -2 -21 -4z"/>
<path d="M2063 5063 c9 -2 23 -2 30 0 6 3 -1 5 -18 5 -16 0 -22 -2 -12 -5z"/>
<path d="M3527 4734 c6 -15 23 -19 23 -5 0 5 -7 11 -14 14 -10 4 -13 1 -9 -9z"/>
<path d="M3191 4544 c0 -11 3 -14 6 -6 3 7 2 16 -1 19 -3 4 -6 -2 -5 -13z"/>
<path d="M2093 4249 c12 -7 16 -17 12 -30 -5 -14 -2 -19 10 -19 13 0 16 6 11
23 -3 12 -6 25 -6 30 0 4 -10 7 -22 7 -21 -1 -21 -2 -5 -11z"/>
<path d="M2210 4240 c-13 -8 -13 -10 2 -10 9 0 20 5 23 10 8 13 -5 13 -25 0z"/>
<path d="M2066 4115 c-10 -19 -32 -39 -50 -46 -40 -16 -37 -14 -30 -32 3 -9
11 -15 17 -13 7 1 9 1 5 -1 -14 -8 -8 -43 6 -43 26 0 46 12 46 27 0 10 6 12
20 8 15 -5 18 -3 14 9 -3 8 -1 31 6 50 9 29 9 40 -2 55 -14 19 -15 18 -32 -14z"/>
<path d="M3585 4071 c-3 -5 -1 -12 5 -16 5 -3 10 1 10 9 0 18 -6 21 -15 7z"/>
<path d="M3561 4030 c-1 -14 -4 -35 -7 -47 -7 -27 8 -30 30 -7 21 20 22 68 2
61 -8 -3 -17 -1 -20 6 -2 7 -5 1 -5 -13z"/>
<path d="M1375 4020 c-11 -5 -39 -9 -62 -9 -23 -1 -67 -10 -97 -21 -30 -12
-68 -23 -86 -25 -17 -2 -44 -12 -58 -22 -15 -10 -52 -25 -82 -35 -117 -35
-149 -51 -182 -86 l-33 -37 2 -150 c2 -179 10 -265 25 -244 7 11 8 9 4 -6 -3
-11 1 -42 9 -69 8 -27 15 -63 15 -80 0 -17 9 -46 20 -63 11 -18 18 -33 16 -33
-6 0 69 -145 83 -162 7 -7 28 -39 47 -71 20 -31 39 -55 44 -52 10 6 26 -27 29
-60 0 -8 8 -15 16 -15 8 0 15 -7 15 -15 0 -8 5 -15 11 -15 6 0 25 -16 42 -35
17 -19 36 -35 42 -35 7 0 20 -9 30 -20 10 -11 24 -20 32 -20 7 0 13 -5 13 -10
0 -6 11 -15 25 -20 14 -5 28 -16 31 -24 3 -8 29 -30 57 -48 29 -18 57 -38 62
-44 13 -14 126 -54 168 -60 17 -2 33 -7 36 -12 7 -11 146 -40 227 -48 81 -9
187 11 243 44 25 15 46 25 46 22 0 -3 17 8 37 24 21 15 35 32 33 37 -7 11 60
23 82 15 14 -6 15 -9 3 -16 -11 -7 -12 -11 0 -25 12 -15 15 -14 35 7 18 19 20
30 14 68 -4 25 -3 47 2 48 5 2 9 8 9 14 0 14 26 38 42 38 10 0 9 3 -2 10 -10
7 -11 10 -2 10 7 0 17 11 22 24 5 13 18 27 29 31 12 3 21 12 21 18 0 14 41 53
53 49 4 -1 7 5 7 13 0 8 12 18 28 21 15 4 31 9 37 12 5 3 33 6 62 5 48 -1 56
-4 88 -39 21 -22 35 -32 36 -23 0 7 4 4 9 -9 5 -12 8 -24 7 -26 -3 -6 49 -46
60 -46 4 0 19 -21 33 -46 13 -26 41 -68 62 -94 21 -26 38 -53 38 -59 0 -6 13
-17 29 -26 17 -8 60 -37 96 -65 36 -27 70 -50 75 -50 5 0 13 -6 17 -13 11 -17
90 -54 137 -62 20 -4 43 -13 49 -20 38 -37 394 -58 602 -35 50 6 117 19 150
30 33 10 103 31 155 45 52 15 127 41 165 60 39 18 86 36 105 40 19 4 37 10 40
14 9 11 70 42 92 46 12 3 24 8 27 12 3 5 45 27 92 50 76 38 87 46 93 74 9 47
7 77 -5 81 -9 3 -9 12 -2 33 11 34 -3 72 -30 81 -9 3 -15 10 -12 15 4 5 -5 20
-18 33 -32 32 -37 48 -20 65 11 10 13 31 7 91 -6 76 2 114 30 132 8 5 7 8 -2
8 -9 0 -7 7 6 20 10 11 25 33 33 47 8 15 29 40 47 56 18 16 35 39 38 52 3 12
16 27 30 34 53 24 23 40 -73 40 -35 0 -89 5 -120 11 -60 10 -241 24 -538 40
-156 8 -314 6 -390 -5 -16 -3 -97 -11 -180 -20 -144 -14 -189 -21 -300 -45
-51 -11 -195 -29 -273 -35 -42 -3 -102 -22 -112 -36 -5 -8 -52 -12 -115 -10
-26 1 -35 4 -27 10 11 7 10 10 -3 15 -23 9 -25 8 -25 -9 0 -12 -14 -15 -66
-15 -41 0 -63 4 -59 10 7 12 12 11 -100 14 -69 2 -100 8 -131 24 -23 12 -44
18 -48 15 -4 -4 -18 5 -32 20 -17 18 -35 27 -56 27 -19 0 -41 9 -55 22 -20 19
-26 20 -47 9 -19 -11 -31 -11 -60 -1 -19 6 -43 10 -53 8 -31 -5 -45 10 -32 34
10 19 9 20 -10 15 -30 -8 -78 13 -92 40 -7 13 -19 23 -28 23 -11 0 -10 3 5 15
11 9 14 15 7 16 -23 3 -28 4 -41 13 -8 4 -26 3 -42 -4 -24 -10 -35 -9 -61 4
-18 9 -41 16 -52 16 -21 0 -21 0 -1 -15 23 -17 15 -19 -23 -4 l-28 11 24 12
c19 11 21 14 7 19 -21 8 -48 -2 -39 -16 9 -15 -48 1 -61 17 -6 7 -43 24 -83
36 -64 21 -70 25 -55 37 16 12 16 14 -3 28 -11 9 -28 14 -37 11 -11 -2 -18 1
-18 10 0 12 -23 18 -67 17 -9 -1 -10 5 -3 17 13 25 13 30 -3 24 -10 -3 -14 6
-15 31 -1 32 1 35 18 30 25 -8 38 19 20 41 -11 12 -15 12 -21 2 -7 -10 -9 -9
-9 5 0 9 5 17 10 17 18 0 10 20 -19 49 -16 16 -27 32 -24 35 8 8 3 7 -22 -4z
m622 -486 c-3 -3 -12 -4 -19 -1 -8 3 -5 6 6 6 11 1 17 -2 13 -5z m3043 -164
c0 -5 -7 -7 -15 -4 -8 4 -15 8 -15 10 0 2 7 4 15 4 8 0 15 -4 15 -10z m-3338
-105 c10 -10 -39 -261 -61 -310 -24 -54 -42 -77 -84 -107 -23 -16 -28 -17 -33
-5 -3 9 12 32 38 59 50 49 66 95 94 266 15 92 27 116 46 97z m-92 -36 c0 -7
-10 -67 -22 -135 -15 -85 -26 -124 -35 -124 -17 0 -16 25 7 154 11 60 20 111
20 113 0 2 7 3 15 3 8 0 15 -5 15 -11z m273 -37 l-2 -40 51 -7 50 -7 -6 -52
c-14 -110 -41 -219 -57 -229 -21 -13 -69 -1 -69 18 0 10 10 15 29 15 28 0 29
3 40 63 27 156 27 153 -9 161 -18 3 -34 5 -35 4 -1 -2 -14 -75 -29 -163 -15
-87 -29 -161 -31 -163 -2 -3 -10 -2 -18 1 -13 5 -9 41 38 303 5 30 4 32 -29
36 l-35 4 -10 -61 c-6 -33 -15 -90 -22 -127 -9 -56 -14 -68 -30 -68 -15 0 -18
5 -14 23 8 37 45 251 45 261 0 5 23 6 54 2 l53 -6 7 41 c9 54 32 47 29 -9z
m1885 -334 c-3 -135 -7 -169 -22 -198 -29 -53 -58 -90 -72 -90 -25 0 -26 22
-1 48 49 51 60 95 65 255 4 121 7 147 19 147 13 0 14 -24 11 -162z m192 123
l0 -40 53 -3 52 -3 3 -127 c2 -117 1 -129 -18 -148 -26 -26 -66 -26 -73 0 -4
17 0 20 24 20 l29 0 0 110 0 110 -35 0 -35 0 0 -165 c0 -158 -1 -165 -20 -165
-19 0 -20 7 -20 165 l0 165 -30 0 -30 0 0 -130 c0 -123 -1 -130 -20 -130 -19
0 -20 7 -20 150 l0 150 50 0 50 0 0 33 c0 36 6 47 27 47 9 0 13 -13 13 -39z
m-280 -141 c0 -118 -2 -140 -15 -140 -13 0 -15 22 -15 140 0 118 2 140 15 140
13 0 15 -22 15 -140z"/>
<path d="M1950 3994 c0 -9 5 -14 12 -12 18 6 21 28 4 28 -9 0 -16 -7 -16 -16z"/>
<path d="M5405 3507 c-18 -22 -11 -59 13 -68 12 -5 22 -5 23 -1 0 4 2 15 4 26
3 18 -14 56 -25 56 -3 -1 -9 -6 -15 -13z"/>
<path d="M2848 3303 c7 -3 16 -2 19 1 4 3 -2 6 -13 5 -11 0 -14 -3 -6 -6z"/>
<path d="M4967 2743 c-9 -9 -9 -53 1 -53 17 1 54 38 48 49 -8 12 -39 15 -49 4z"/>
<path d="M5360 2454 c0 -7 27 -34 35 -34 3 0 1 9 -5 20 -10 18 -30 28 -30 14z"/>
<path d="M321 2404 c0 -11 3 -14 6 -6 3 7 2 16 -1 19 -3 4 -6 -2 -5 -13z"/>
<path d="M2389 2339 c-8 -5 -12 -9 -9 -10 3 0 13 -2 22 -4 10 -2 20 0 23 5 8
12 -20 19 -36 9z"/>
<path d="M2340 2316 c0 -7 7 -19 15 -26 8 -7 15 -20 15 -30 0 -10 10 -20 23
-24 25 -6 77 -90 78 -127 0 -13 3 -19 5 -13 7 16 52 -5 59 -27 3 -8 18 -28 34
-43 23 -22 35 -27 56 -22 14 4 29 14 32 24 4 9 22 33 41 53 31 33 48 58 68 98
4 7 2 16 -5 20 -9 6 -66 7 -107 2 -6 0 -14 -14 -17 -31 -7 -32 -36 -42 -38
-12 0 9 -1 33 -2 52 -2 24 -7 36 -19 38 -12 2 -18 -3 -18 -17 0 -18 -2 -19
-31 -4 -19 9 -28 20 -25 29 3 8 -2 15 -12 16 -9 0 -22 2 -28 2 -6 1 -18 7 -27
14 -9 8 -25 11 -36 7 -14 -4 -24 0 -33 14 -15 24 -28 27 -28 7z"/>
<path d="M5342 1947 c-8 -9 -10 -26 -6 -42 5 -18 2 -30 -7 -36 -10 -6 -8 -9
10 -9 13 0 30 8 37 18 18 23 18 62 0 62 -8 0 -16 5 -18 11 -2 7 -8 6 -16 -4z"/>
<path d="M5594 1882 c0 -23 2 -39 5 -37 2 2 13 -2 25 -10 11 -8 31 -15 43 -15
31 0 31 45 1 70 -27 21 -41 16 -33 -11 4 -13 2 -19 -9 -19 -9 0 -16 8 -16 18
0 9 -4 23 -9 31 -5 8 -8 -1 -7 -27z"/>
<path d="M2544 564 c-14 -20 -15 -27 -5 -34 29 -17 96 32 73 54 -15 15 -53 4
-68 -20z"/>
</g>
</svg>
